<?xml version="1.0" encoding="utf-8"?>
<!-- Generator: Adobe Illustrator 22.1.0, SVG Export Plug-In . SVG Version: 6.00 Build 0)  -->
<svg version="1.1" id="Layer_1" xmlns="http://www.w3.org/2000/svg" xmlns:xlink="http://www.w3.org/1999/xlink" x="0px" y="0px"
	 viewBox="0 0 485 385" style="enable-background:new 0 0 485 385;" xml:space="preserve">
<style type="text/css">
	.st0{fill:#264C5A;}
</style>
<g>
	<path class="st0" d="M68.1,69h6.6v43.6h-6.6V69z"/>
	<path class="st0" d="M83.9,69h6.2l19.7,31h0.1V69h6.6v43.6h-6.2l-19.7-31h-0.1v31h-6.6V69z"/>
	<path class="st0" d="M125.8,69H141c5.9,0,10.3,2.5,13.3,7.4c1.1,1.6,1.7,3.3,2,5.1c0.2,1.8,0.3,4.9,0.3,9.3c0,4.7-0.2,7.9-0.5,9.8
		c-0.2,0.9-0.4,1.8-0.7,2.5c-0.3,0.7-0.7,1.5-1.2,2.2c-1.3,2.1-3,3.7-5.3,5.1c-2.3,1.4-5,2.2-8.3,2.2h-14.8V69z M132.4,106.4h7.9
		c3.7,0,6.4-1.3,8.1-3.8c0.7-0.9,1.2-2.1,1.4-3.6c0.2-1.4,0.3-4.1,0.3-7.9c0-3.8-0.1-6.5-0.3-8.1c-0.2-1.6-0.8-3-1.7-4
		c-1.8-2.5-4.4-3.8-7.8-3.7h-7.9V106.4z"/>
	<path class="st0" d="M164.3,69h6.6v43.6h-6.6V69z"/>
	<path class="st0" d="M202.4,102.9h-16.5l-3.3,9.7h-7L191.4,69h5.5l15.8,43.6h-7L202.4,102.9z M200.5,97l-6.3-19h-0.1l-6.3,19H200.5
		z"/>
	<path class="st0" d="M217.4,69h6.2l19.7,31h0.1V69h6.6v43.6h-6.2l-19.7-31H224v31h-6.6V69z"/>
	<path class="st0" d="M281.6,102.9h-16.5l-3.3,9.7h-7L270.6,69h5.5l15.8,43.6h-7L281.6,102.9z M279.7,97l-6.3-19h-0.1L267,97H279.7z
		"/>
</g>
<g>
	<path class="st0" d="M68.1,137.2H85c4.3,0,7.5,1.1,9.6,3.2c2.2,2.1,3.2,4.9,3.2,8.4c0,1.8-0.4,3.5-1.3,5.1c-0.5,0.8-1.1,1.5-2,2.2
		c-0.9,0.7-1.9,1.4-3.2,2v0.1c2.4,0.6,4.1,1.9,5.4,3.7c1.1,1.9,1.7,4,1.7,6.3c0,3.8-1.2,6.7-3.5,8.9c-2.3,2.3-5.1,3.4-8.5,3.4H68.1
		V137.2z M74.7,143.1v12.4h9.5c2.4,0,4.2-0.6,5.3-1.9c1.2-1.2,1.7-2.6,1.7-4.3c0-1.7-0.6-3.2-1.7-4.4c-1.1-1.1-2.9-1.7-5.3-1.8H74.7
		z M74.7,161.3v13h10.1c2.4,0,4.2-0.7,5.4-2c1.1-1.3,1.7-2.8,1.7-4.5c0-1.8-0.6-3.3-1.7-4.6c-1.1-1.3-2.9-1.9-5.4-1.9H74.7z"/>
	<path class="st0" d="M105.3,137.2h6.6v43.4h-6.6V137.2z"/>
	<path class="st0" d="M119.6,158.9c0-5,0.1-8.4,0.4-10.1c0.3-1.7,0.8-3.1,1.5-4.1c1.1-2,2.7-3.8,5.1-5.4c2.3-1.6,5.1-2.4,8.5-2.4
		c3.5,0,6.3,0.9,8.6,2.4c2.3,1.6,3.9,3.4,4.9,5.4c0.7,1.1,1.2,2.4,1.5,4.1c0.3,1.7,0.4,5.1,0.4,10.1c0,5-0.1,8.3-0.4,10.1
		c-0.3,1.7-0.8,3.1-1.5,4.2c-1,2-2.7,3.8-4.9,5.3c-2.3,1.6-5.2,2.4-8.6,2.5c-3.4-0.1-6.3-0.9-8.5-2.5c-2.3-1.5-4-3.3-5.1-5.3
		c-0.3-0.7-0.6-1.3-0.9-1.9c-0.2-0.6-0.4-1.4-0.6-2.3C119.7,167.2,119.6,163.9,119.6,158.9z M126.2,158.9c0,4.3,0.2,7.2,0.5,8.7
		c0.3,1.5,0.8,2.7,1.7,3.7c0.7,0.9,1.6,1.6,2.7,2.2c1.1,0.7,2.4,1,4,1c1.6,0,2.9-0.3,4.1-1c1.1-0.6,2-1.3,2.6-2.2
		c0.9-0.9,1.4-2.2,1.8-3.7c0.3-1.5,0.4-4.4,0.4-8.7c0-4.3-0.1-7.2-0.4-8.7c-0.3-1.5-0.9-2.7-1.8-3.6c-0.7-0.9-1.5-1.6-2.6-2.2
		c-1.2-0.6-2.5-0.9-4.1-0.9c-1.5,0-2.9,0.3-4,0.9c-1.1,0.6-2,1.3-2.7,2.2c-0.9,0.9-1.4,2.1-1.7,3.6
		C126.3,151.7,126.2,154.6,126.2,158.9z"/>
	<path class="st0" d="M171.1,174.4c5.6-0.1,8.5-2.1,8.6-6c0-3.2-1.8-5.2-5.7-5.8c-1.7-0.2-3.7-0.5-5.7-0.8c-3.7-0.6-6.6-2-8.5-4.1
		c-2-2.2-3-4.9-3-8c0-3.8,1.3-6.9,3.8-9.2c2.4-2.3,5.9-3.5,10.4-3.5c5.4,0.1,10.1,1.6,14.1,4.5l-3.7,5.4c-3.3-2.1-6.8-3.3-10.8-3.3
		c-2,0-3.7,0.5-5.1,1.5c-1.4,1.1-2.1,2.6-2.2,4.7c0,1.3,0.5,2.4,1.5,3.4c1,1,2.5,1.7,4.7,2.1c1.2,0.2,2.8,0.4,4.9,0.7
		c4.1,0.6,7.1,2,9,4.4c1.9,2.3,2.9,5,2.9,8.1c-0.2,8.3-5.3,12.5-15.2,12.6c-6.4,0-12-2-16.6-6l4.3-4.9
		C162.2,172.9,166.4,174.4,171.1,174.4z"/>
	<path class="st0" d="M222.5,168.5c-1,4-2.8,7.1-5.5,9.3c-2.8,2.1-6,3.2-9.8,3.2c-3.4-0.1-6.3-0.9-8.5-2.5c-2.3-1.5-4-3.3-5.1-5.3
		c-0.3-0.7-0.6-1.3-0.9-1.9c-0.2-0.6-0.4-1.4-0.6-2.3c-0.3-1.7-0.4-5.1-0.4-10.1c0-5,0.1-8.4,0.4-10.1c0.3-1.7,0.8-3.1,1.5-4.1
		c1.1-2,2.7-3.8,5.1-5.4c2.3-1.6,5.1-2.4,8.5-2.4c4.2,0,7.6,1.3,10.2,3.7c2.6,2.5,4.3,5.5,5,9.1h-7c-0.5-1.7-1.5-3.2-2.9-4.5
		c-1.5-1.2-3.3-1.8-5.4-1.8c-1.5,0-2.9,0.3-4,0.9c-1.1,0.6-2,1.3-2.7,2.2c-0.9,0.9-1.4,2.1-1.7,3.6c-0.3,1.5-0.5,4.5-0.5,8.7
		c0,4.3,0.2,7.2,0.5,8.7c0.3,1.5,0.8,2.7,1.7,3.7c0.7,0.9,1.6,1.6,2.7,2.2c1.1,0.7,2.4,1,4,1c3.7,0,6.5-2,8.3-5.9H222.5z"/>
	<path class="st0" d="M227.2,137.2h6.6v43.4h-6.6V137.2z"/>
	<path class="st0" d="M242.9,137.2h27.7v6.2h-21.1v12.4h18v5.8h-18v12.7h21.1v6.2h-27.7V137.2z"/>
	<path class="st0" d="M276.8,137.2h6.2l19.7,30.9h0.1v-30.9h6.6v43.4h-6.2l-19.6-30.9h-0.1v30.9h-6.6V137.2z"/>
	<path class="st0" d="M347.8,168.5c-1,4-2.8,7.1-5.5,9.3c-2.8,2.1-6,3.2-9.8,3.2c-3.4-0.1-6.3-0.9-8.5-2.5c-2.3-1.5-4-3.3-5.1-5.3
		c-0.3-0.7-0.6-1.3-0.9-1.9c-0.2-0.6-0.4-1.4-0.6-2.3c-0.3-1.7-0.4-5.1-0.4-10.1c0-5,0.1-8.4,0.4-10.1c0.3-1.7,0.8-3.1,1.5-4.1
		c1.1-2,2.7-3.8,5.1-5.4c2.3-1.6,5.1-2.4,8.5-2.4c4.2,0,7.6,1.3,10.2,3.7c2.6,2.5,4.3,5.5,5,9.1h-7c-0.5-1.7-1.5-3.2-2.9-4.5
		c-1.5-1.2-3.3-1.8-5.4-1.8c-1.5,0-2.9,0.3-4,0.9c-1.1,0.6-2,1.3-2.7,2.2c-0.9,0.9-1.4,2.1-1.7,3.6c-0.3,1.5-0.5,4.5-0.5,8.7
		c0,4.3,0.2,7.2,0.5,8.7c0.3,1.5,0.8,2.7,1.7,3.7c0.7,0.9,1.6,1.6,2.7,2.2c1.1,0.7,2.4,1,4,1c3.7,0,6.5-2,8.3-5.9H347.8z"/>
	<path class="st0" d="M352.5,137.2h27.7v6.2h-21.1v12.4h18v5.8h-18v12.7h21.1v6.2h-27.7V137.2z"/>
	<path class="st0" d="M399.3,174.4c5.6-0.1,8.5-2.1,8.6-6c0-3.2-1.8-5.2-5.7-5.8c-1.7-0.2-3.7-0.5-5.7-0.8c-3.7-0.6-6.6-2-8.5-4.1
		c-2-2.2-3-4.9-3-8c0-3.8,1.3-6.9,3.8-9.2c2.4-2.3,5.9-3.5,10.4-3.5c5.4,0.1,10.1,1.6,14.1,4.5l-3.7,5.4c-3.3-2.1-6.8-3.3-10.8-3.3
		c-2,0-3.7,0.5-5.1,1.5c-1.4,1.1-2.1,2.6-2.2,4.7c0,1.3,0.5,2.4,1.5,3.4c1,1,2.5,1.7,4.7,2.1c1.2,0.2,2.8,0.4,4.9,0.7
		c4.1,0.6,7.1,2,9,4.4c1.9,2.3,2.9,5,2.9,8.1c-0.2,8.3-5.3,12.5-15.2,12.6c-6.4,0-12-2-16.6-6l4.3-4.9
		C390.4,172.9,394.5,174.4,399.3,174.4z"/>
</g>
<g>
	<path class="st0" d="M68.2,204.8h17.1c3.6,0,6.6,1,8.9,2.9c2.8,2.2,4.2,5.3,4.4,9.3c-0.1,5.9-2.9,10-8.5,12.1l10.2,19.4h-7.9
		l-9-18.7h-8.5v18.7h-6.6V204.8z M74.8,224h10c2.5,0,4.3-0.8,5.6-2.2c1.2-1.3,1.8-2.9,1.8-4.8c0-2.3-0.8-3.9-2.2-5
		c-1.1-0.9-2.7-1.4-4.9-1.4H74.8V224z"/>
	<path class="st0" d="M105.7,204.8h28v6.3h-21.3v12.5h18.2v5.9h-18.2v12.9h21.3v6.3h-28V204.8z"/>
	<path class="st0" d="M152.8,242.3c5.7-0.1,8.6-2.1,8.6-6.1c0-3.3-1.9-5.2-5.7-5.9c-1.8-0.2-3.7-0.5-5.8-0.8c-3.8-0.6-6.6-2-8.6-4.2
		c-2-2.2-3-4.9-3-8.1c0-3.8,1.3-6.9,3.8-9.2c2.5-2.3,6-3.5,10.5-3.5c5.4,0.1,10.2,1.6,14.2,4.5l-3.7,5.5c-3.3-2.2-6.9-3.3-10.8-3.4
		c-2,0-3.7,0.5-5.1,1.5c-1.4,1.1-2.2,2.6-2.2,4.7c0,1.3,0.5,2.4,1.5,3.4c1,1,2.6,1.8,4.7,2.2c1.2,0.2,2.8,0.4,4.9,0.7
		c4.1,0.6,7.1,2,9.1,4.4c1.9,2.3,2.9,5.1,2.9,8.2c-0.2,8.4-5.3,12.6-15.4,12.7c-6.5,0-12.1-2-16.7-6l4.4-5
		C143.9,240.8,148,242.3,152.8,242.3z"/>
	<path class="st0" d="M175.2,204.8h28v6.3h-21.3v12.5H200v5.9h-18.2v12.9h21.3v6.3h-28V204.8z"/>
	<path class="st0" d="M231.8,238.8h-16.6l-3.4,9.8h-7l15.9-43.8h5.6l15.9,43.8h-7L231.8,238.8z M229.9,232.9l-6.3-19.1h-0.1
		l-6.3,19.1H229.9z"/>
	<path class="st0" d="M246.9,204.8H264c3.6,0,6.6,1,8.9,2.9c2.8,2.2,4.2,5.3,4.4,9.3c-0.1,5.9-2.9,10-8.5,12.1l10.2,19.4H271
		l-9-18.7h-8.5v18.7h-6.6V204.8z M253.5,224h10c2.5,0,4.3-0.8,5.6-2.2c1.2-1.3,1.8-2.9,1.8-4.8c0-2.3-0.8-3.9-2.2-5
		c-1.1-0.9-2.7-1.4-4.9-1.4h-10.4V224z"/>
	<path class="st0" d="M313.9,236.4c-1,4.1-2.8,7.2-5.5,9.4c-2.8,2.2-6.1,3.2-9.9,3.2c-3.4-0.1-6.3-0.9-8.6-2.5
		c-2.3-1.5-4-3.3-5.1-5.3c-0.3-0.7-0.6-1.3-0.9-1.9c-0.2-0.6-0.4-1.4-0.6-2.3c-0.3-1.8-0.5-5.1-0.5-10.2c0-5.1,0.2-8.5,0.5-10.2
		c0.3-1.7,0.8-3.1,1.5-4.2c1.1-2,2.8-3.8,5.1-5.4c2.3-1.6,5.2-2.4,8.6-2.5c4.2,0,7.7,1.3,10.3,3.8c2.7,2.5,4.3,5.6,5,9.2h-7
		c-0.5-1.8-1.5-3.3-2.9-4.5c-1.5-1.2-3.3-1.8-5.4-1.8c-1.6,0-2.9,0.4-4,0.9c-1.1,0.6-2.1,1.4-2.8,2.3c-0.9,0.9-1.4,2.2-1.7,3.6
		c-0.3,1.6-0.5,4.5-0.5,8.8c0,4.3,0.2,7.2,0.5,8.7c0.3,1.5,0.9,2.8,1.7,3.7c0.7,0.9,1.6,1.6,2.8,2.2c1.1,0.7,2.5,1,4,1
		c3.7,0,6.5-2,8.3-6H313.9z"/>
	<path class="st0" d="M342.5,229.5h-17.3v19.1h-6.6v-43.8h6.6v18.8h17.3v-18.8h6.6v43.8h-6.6V229.5z"/>
</g>
<g>
	<path class="st0" d="M68.2,272.8h6.6v43.8h-6.6V272.8z"/>
	<path class="st0" d="M84,272.8h6.2l19.8,31.1h0.1v-31.1h6.6v43.8h-6.3l-19.8-31.1h-0.1v31.1H84V272.8z"/>
	<path class="st0" d="M139.1,310.3c5.7-0.1,8.6-2.1,8.6-6.1c0-3.3-1.9-5.2-5.7-5.9c-1.8-0.2-3.7-0.5-5.8-0.8c-3.8-0.6-6.6-2-8.6-4.2
		c-2-2.2-3-4.9-3-8.1c0-3.8,1.3-6.9,3.8-9.2c2.5-2.3,6-3.5,10.5-3.5c5.4,0.1,10.2,1.6,14.2,4.5l-3.7,5.5c-3.3-2.2-6.9-3.3-10.8-3.4
		c-2,0-3.7,0.5-5.1,1.5c-1.4,1.1-2.2,2.6-2.2,4.7c0,1.3,0.5,2.4,1.5,3.4c1,1,2.6,1.8,4.7,2.2c1.2,0.2,2.8,0.4,4.9,0.7
		c4.1,0.6,7.1,2,9.1,4.4c1.9,2.3,2.9,5.1,2.9,8.2c-0.2,8.4-5.3,12.6-15.4,12.7c-6.5,0-12.1-2-16.7-6l4.4-5
		C130.1,308.8,134.3,310.3,139.1,310.3z"/>
	<path class="st0" d="M168.8,278.7h-12v-5.9h30.6v5.9h-12v37.9h-6.7V278.7z"/>
	<path class="st0" d="M192.1,272.8h6.6v43.8h-6.6V272.8z"/>
	<path class="st0" d="M215.4,278.7h-12v-5.9H234v5.9h-12v37.9h-6.7V278.7z"/>
	<path class="st0" d="M237.9,272.8h6.6v28.2c0,3,0.9,5.3,2.6,6.8c1.6,1.6,3.8,2.5,6.3,2.5c2.6,0,4.7-0.8,6.4-2.5
		c1.6-1.6,2.5-3.8,2.5-6.8v-28.2h6.6v28.9c-0.1,4.6-1.6,8.3-4.5,11c-2.9,2.8-6.6,4.2-11.1,4.2c-4.4,0-8-1.5-11-4.2
		c-3-2.7-4.5-6.4-4.6-11V272.8z"/>
	<path class="st0" d="M284.9,278.7h-12v-5.9h30.6v5.9h-12v37.9h-6.7V278.7z"/>
	<path class="st0" d="M308.2,272.8h28v6.3h-21.3v12.5H333v5.9h-18.2v12.9h21.3v6.3h-28V272.8z"/>
</g>
</svg>
