<svg xmlns="http://www.w3.org/2000/svg" viewBox="0 0 485 386"><defs><style>.cls-1{fill:#264c5a;}.cls-2{fill:#fff;}</style></defs><title>IBRI_Logo_Reverse</title><g id="Square"><rect class="cls-1" width="485" height="386"/></g><g id="Layer_3" data-name="Layer 3"><path class="cls-2" d="M75.14,69.05h6.6v43.57h-6.6Z" transform="translate(0.5 0.5)"/><path class="cls-2" d="M90.92,69.05h6.21l19.72,31H117v-31h6.61v43.57h-6.25l-19.69-31h-.12v31h-6.6Z" transform="translate(0.5 0.5)"/><path class="cls-2" d="M132.78,69.05H148q8.85.06,13.27,7.35a13.06,13.06,0,0,1,2,5.14,88.18,88.18,0,0,1,.33,9.29,63,63,0,0,1-.51,9.8,11.27,11.27,0,0,1-.71,2.51,22.06,22.06,0,0,1-1.23,2.24,15.86,15.86,0,0,1-13.6,7.24H132.78Zm6.61,37.32h7.88q5.56,0,8.07-3.79A7.27,7.27,0,0,0,156.75,99a75.59,75.59,0,0,0,.27-8q0-5.67-.27-8.13A7.45,7.45,0,0,0,155,79a8.75,8.75,0,0,0-7.77-3.68h-7.88Z" transform="translate(0.5 0.5)"/><path class="cls-2" d="M171.33,69.05h6.6v43.57h-6.6Z" transform="translate(0.5 0.5)"/><path class="cls-2" d="M209.43,102.87H192.91l-3.35,9.75h-7L198.4,69.05h5.53l15.84,43.57h-7ZM207.55,97l-6.31-19h-.12l-6.3,19Z" transform="translate(0.5 0.5)"/><path class="cls-2" d="M224.43,69.05h6.22l19.72,31h.12v-31h6.6v43.57h-6.24l-19.69-31H231v31h-6.61Z" transform="translate(0.5 0.5)"/><path class="cls-2" d="M288.62,102.87H272.09l-3.34,9.75h-7l15.84-43.57h5.53L299,112.62h-7ZM286.74,97l-6.31-19h-.12L274,97Z" transform="translate(0.5 0.5)"/><path class="cls-2" d="M75.12,137.19H92q6.4.06,9.62,3.22a11.25,11.25,0,0,1,3.25,8.43,10.07,10.07,0,0,1-1.28,5.12,8.5,8.5,0,0,1-2,2.2,13.83,13.83,0,0,1-3.16,2v.12a8.73,8.73,0,0,1,5.37,3.72,12.21,12.21,0,0,1,1.69,6.29,11.87,11.87,0,0,1-3.51,8.9,11.62,11.62,0,0,1-8.55,3.43H75.12Zm6.58,5.87v12.42h9.51q3.6,0,5.3-1.88a5.9,5.9,0,0,0,1.73-4.35,6.24,6.24,0,0,0-1.73-4.44q-1.7-1.69-5.3-1.75Zm0,18.29v13H91.83q3.66-.06,5.36-2a7,7,0,0,0,0-9.12q-1.69-1.87-5.36-1.93Z" transform="translate(0.5 0.5)"/><path class="cls-2" d="M112.32,137.19h6.59v43.43h-6.59Z" transform="translate(0.5 0.5)"/><path class="cls-2" d="M126.56,158.9a71.81,71.81,0,0,1,.45-10.12,11.91,11.91,0,0,1,1.46-4.14,15.33,15.33,0,0,1,13.61-7.81,15.28,15.28,0,0,1,8.64,2.44,14.59,14.59,0,0,1,4.94,5.37,9.9,9.9,0,0,1,1.52,4.14,82.76,82.76,0,0,1,.39,10.12,83.12,83.12,0,0,1-.39,10.07,10,10,0,0,1-1.52,4.2,14.13,14.13,0,0,1-4.94,5.3,15.54,15.54,0,0,1-8.64,2.5,15.24,15.24,0,0,1-8.55-2.5,14.51,14.51,0,0,1-5.06-5.3c-.32-.66-.61-1.28-.87-1.88A12.94,12.94,0,0,1,127,169,72.13,72.13,0,0,1,126.56,158.9Zm6.61,0a50.36,50.36,0,0,0,.48,8.67,7.17,7.17,0,0,0,1.7,3.66,7.66,7.66,0,0,0,2.74,2.18,7.76,7.76,0,0,0,4,1,8.16,8.16,0,0,0,4.08-1,7.23,7.23,0,0,0,2.62-2.18,7.66,7.66,0,0,0,1.76-3.66,54,54,0,0,0,.44-8.67,55.06,55.06,0,0,0-.44-8.72,9.11,9.11,0,0,0-4.38-5.84,9.51,9.51,0,0,0-4.08-.93,9,9,0,0,0-4,.93,8.24,8.24,0,0,0-2.74,2.23,7.2,7.2,0,0,0-1.7,3.61A51.31,51.31,0,0,0,133.17,158.9Z" transform="translate(0.5 0.5)"/><path class="cls-2" d="M178.12,174.39q8.46-.12,8.58-6c0-3.23-1.85-5.18-5.66-5.83l-5.75-.81q-5.59-.91-8.52-4.14a11.53,11.53,0,0,1-3-8,11.85,11.85,0,0,1,3.79-9.17q3.66-3.47,10.39-3.52a24.41,24.41,0,0,1,14.09,4.5l-3.66,5.42a20,20,0,0,0-10.76-3.34,8.22,8.22,0,0,0-5.06,1.52,5.63,5.63,0,0,0-2.17,4.71,4.81,4.81,0,0,0,1.45,3.4,8.46,8.46,0,0,0,4.68,2.14c1.19.2,2.82.43,4.89.68q6.1.84,9,4.38a12.32,12.32,0,0,1,2.89,8.1Q193,180.81,178.06,181A24.64,24.64,0,0,1,161.47,175l4.32-5A19.05,19.05,0,0,0,178.12,174.39Z" transform="translate(0.5 0.5)"/><path class="cls-2" d="M229.53,168.46a16.3,16.3,0,0,1-5.45,9.3,15.53,15.53,0,0,1-9.8,3.21,15.24,15.24,0,0,1-8.55-2.5,14.51,14.51,0,0,1-5.06-5.3c-.32-.66-.61-1.28-.87-1.88a12.14,12.14,0,0,1-.59-2.32,72.13,72.13,0,0,1-.45-10.07,71.81,71.81,0,0,1,.45-10.12,11.71,11.71,0,0,1,1.46-4.14,15.33,15.33,0,0,1,13.61-7.81,14.66,14.66,0,0,1,10.24,3.73,16.36,16.36,0,0,1,5,9.14h-7a9.57,9.57,0,0,0-2.92-4.47,8.62,8.62,0,0,0-5.36-1.82,9,9,0,0,0-4,.93,8.24,8.24,0,0,0-2.74,2.23,7.2,7.2,0,0,0-1.7,3.61,51.31,51.31,0,0,0-.48,8.72,50.36,50.36,0,0,0,.48,8.67,7.17,7.17,0,0,0,1.7,3.66,7.66,7.66,0,0,0,2.74,2.18,7.76,7.76,0,0,0,4,1q5.53,0,8.28-5.93Z" transform="translate(0.5 0.5)"/><path class="cls-2" d="M234.17,137.19h6.59v43.43h-6.59Z" transform="translate(0.5 0.5)"/><path class="cls-2" d="M249.9,137.19h27.73v6.22H256.48v12.4h18v5.83h-18v12.75h21.15v6.23H249.9Z" transform="translate(0.5 0.5)"/><path class="cls-2" d="M283.83,137.19H290l19.66,30.86h.12V137.19h6.58v43.43h-6.22l-19.63-30.86h-.12v30.86h-6.58Z" transform="translate(0.5 0.5)"/><path class="cls-2" d="M354.83,168.46a16.3,16.3,0,0,1-5.45,9.3,15.51,15.51,0,0,1-9.8,3.21,15.23,15.23,0,0,1-8.54-2.5,14.54,14.54,0,0,1-5.07-5.3c-.32-.66-.6-1.28-.86-1.88a12.08,12.08,0,0,1-.6-2.32,72.64,72.64,0,0,1-.44-10.07,72.33,72.33,0,0,1,.44-10.12,12.11,12.11,0,0,1,1.46-4.14,15.37,15.37,0,0,1,13.61-7.81,14.69,14.69,0,0,1,10.25,3.73,16.35,16.35,0,0,1,5,9.14h-7a9.57,9.57,0,0,0-2.92-4.47,8.63,8.63,0,0,0-5.37-1.82,9.1,9.1,0,0,0-4,.93,8.34,8.34,0,0,0-2.74,2.23,7.19,7.19,0,0,0-1.69,3.61,51.31,51.31,0,0,0-.48,8.72,50.36,50.36,0,0,0,.48,8.67,7.16,7.16,0,0,0,1.69,3.66,8.89,8.89,0,0,0,6.73,3.16q5.55,0,8.29-5.93Z" transform="translate(0.5 0.5)"/><path class="cls-2" d="M359.48,137.19h27.73v6.22H366.06v12.4h18.05v5.83H366.06v12.75h21.15v6.23H359.48Z" transform="translate(0.5 0.5)"/><path class="cls-2" d="M406.27,174.39q8.46-.12,8.58-6c0-3.23-1.85-5.18-5.66-5.83l-5.75-.81q-5.6-.91-8.51-4.14a11.48,11.48,0,0,1-3-8,11.88,11.88,0,0,1,3.78-9.17q3.66-3.47,10.39-3.52a24.38,24.38,0,0,1,14.09,4.5l-3.66,5.42a20,20,0,0,0-10.75-3.34,8.23,8.23,0,0,0-5.07,1.52,5.65,5.65,0,0,0-2.17,4.71A4.83,4.83,0,0,0,400,153a8.39,8.39,0,0,0,4.68,2.14c1.19.2,2.81.43,4.88.68q6.1.84,9,4.38a12.32,12.32,0,0,1,2.89,8.1q-.31,12.47-15.25,12.63A24.64,24.64,0,0,1,389.62,175l4.32-5A19.09,19.09,0,0,0,406.27,174.39Z" transform="translate(0.5 0.5)"/><path class="cls-2" d="M75.16,204.83H92.25a13.43,13.43,0,0,1,8.92,2.89q4.17,3.27,4.35,9.34-.12,8.91-8.47,12.13l10.15,19.43H99.3l-9-18.71H81.8v18.71H75.16ZM81.8,224h10a7.23,7.23,0,0,0,5.58-2.16,6.75,6.75,0,0,0,1.83-4.8q-.06-3.44-2.19-5a7.6,7.6,0,0,0-4.86-1.35H81.8Z" transform="translate(0.5 0.5)"/><path class="cls-2" d="M112.67,204.83h28v6.28H119.3V223.6h18.2v5.89H119.3v12.85h21.32v6.28H112.67Z" transform="translate(0.5 0.5)"/><path class="cls-2" d="M159.84,242.34q8.53-.12,8.65-6.1.06-4.89-5.7-5.88l-5.8-.81q-5.64-.93-8.59-4.18a11.6,11.6,0,0,1-3-8.1,12,12,0,0,1,3.81-9.25q3.69-3.5,10.48-3.55A24.57,24.57,0,0,1,173.87,209l-3.7,5.46a20.06,20.06,0,0,0-10.84-3.36,8.26,8.26,0,0,0-5.1,1.53,5.7,5.7,0,0,0-2.2,4.75,4.79,4.79,0,0,0,1.48,3.42,8.43,8.43,0,0,0,4.71,2.16c1.2.2,2.84.43,4.93.69q6.15.84,9.09,4.42a12.36,12.36,0,0,1,2.92,8.16q-.33,12.56-15.38,12.74a24.84,24.84,0,0,1-16.72-6l4.35-5A19.24,19.24,0,0,0,159.84,242.34Z" transform="translate(0.5 0.5)"/><path class="cls-2" d="M182.15,204.83h28v6.28H188.79V223.6H207v5.89h-18.2v12.85h21.32v6.28h-28Z" transform="translate(0.5 0.5)"/><path class="cls-2" d="M238.79,238.83H222.18l-3.36,9.79h-7l15.92-43.79h5.55l15.92,43.79h-7Zm-1.89-5.89-6.34-19.13h-.12l-6.34,19.13Z" transform="translate(0.5 0.5)"/><path class="cls-2" d="M253.86,204.83H271a13.42,13.42,0,0,1,8.92,2.89q4.17,3.27,4.35,9.34-.12,8.91-8.47,12.13l10.16,19.43H278l-9-18.71H260.5v18.71h-6.64ZM260.5,224h10a7.27,7.27,0,0,0,5.59-2.16,6.75,6.75,0,0,0,1.83-4.8q-.06-3.44-2.2-5a7.6,7.6,0,0,0-4.86-1.35H260.5Z" transform="translate(0.5 0.5)"/><path class="cls-2" d="M320.89,236.36a16.38,16.38,0,0,1-5.5,9.37,15.57,15.57,0,0,1-9.88,3.25,15.29,15.29,0,0,1-8.61-2.53,14.6,14.6,0,0,1-5.11-5.34q-.48-1-.87-1.89a12.32,12.32,0,0,1-.6-2.34,73.51,73.51,0,0,1-.45-10.16,73.29,73.29,0,0,1,.45-10.21,12.08,12.08,0,0,1,1.47-4.17,15.55,15.55,0,0,1,13.72-7.87,14.79,14.79,0,0,1,10.33,3.76,16.45,16.45,0,0,1,5.05,9.22h-7a9.6,9.6,0,0,0-2.94-4.51,8.67,8.67,0,0,0-5.41-1.83,9.17,9.17,0,0,0-4,.93,8.37,8.37,0,0,0-2.76,2.25,7.23,7.23,0,0,0-1.71,3.64,52.23,52.23,0,0,0-.48,8.79,51.11,51.11,0,0,0,.48,8.74,7.32,7.32,0,0,0,1.71,3.7,9,9,0,0,0,6.78,3.18q5.6,0,8.35-6Z" transform="translate(0.5 0.5)"/><path class="cls-2" d="M349.54,229.49H332.21v19.13h-6.64V204.83h6.64V223.6h17.33V204.83h6.63v43.79h-6.63Z" transform="translate(0.5 0.5)"/><path class="cls-2" d="M75.16,272.83H81.8v43.79H75.16Z" transform="translate(0.5 0.5)"/><path class="cls-2" d="M91,272.83h6.24l19.82,31.11h.12V272.83h6.64v43.79h-6.28L97.77,285.51h-.12v31.11H91Z" transform="translate(0.5 0.5)"/><path class="cls-2" d="M146.06,310.34q8.52-.12,8.65-6.1.06-4.89-5.71-5.88l-5.79-.81q-5.66-.93-8.59-4.18a11.61,11.61,0,0,1-3-8.1A12,12,0,0,1,135.4,276q3.69-3.5,10.48-3.55a24.61,24.61,0,0,1,14.2,4.54l-3.69,5.46a20.08,20.08,0,0,0-10.84-3.36,8.29,8.29,0,0,0-5.11,1.53,5.69,5.69,0,0,0-2.19,4.75,4.82,4.82,0,0,0,1.47,3.42,8.46,8.46,0,0,0,4.72,2.16q1.8.3,4.92.69,6.16.84,9.1,4.42a12.4,12.4,0,0,1,2.91,8.16Q161,316.8,146,317a24.87,24.87,0,0,1-16.73-6l4.36-5A19.22,19.22,0,0,0,146.06,310.34Z" transform="translate(0.5 0.5)"/><path class="cls-2" d="M175.79,278.75h-12v-5.92h30.63v5.92h-12v37.87h-6.66Z" transform="translate(0.5 0.5)"/><path class="cls-2" d="M199.12,272.83h6.64v43.79h-6.64Z" transform="translate(0.5 0.5)"/><path class="cls-2" d="M222.39,278.75h-12v-5.92H241v5.92h-12v37.87h-6.67Z" transform="translate(0.5 0.5)"/><path class="cls-2" d="M244.92,272.83h6.63v28.23c0,3,.9,5.26,2.58,6.82a8.61,8.61,0,0,0,6.34,2.46,8.8,8.8,0,0,0,6.4-2.46c1.64-1.56,2.48-3.84,2.52-6.82V272.83H276v28.95q-.12,6.92-4.48,11a16.48,16.48,0,0,1-22.07,0q-4.5-4-4.56-11Z" transform="translate(0.5 0.5)"/><path class="cls-2" d="M291.88,278.75h-12v-5.92h30.63v5.92h-12v37.87h-6.67Z" transform="translate(0.5 0.5)"/><path class="cls-2" d="M315.21,272.83h28v6.28H321.85V291.6h18.2v5.89h-18.2v12.85h21.32v6.28h-28Z" transform="translate(0.5 0.5)"/></g></svg>